<mxfile host="app.diagrams.net" modified="2023-12-19T02:57:08.395Z" agent="Mozilla/5.0 (Macintosh; Intel Mac OS X 10_15_7) AppleWebKit/537.36 (KHTML, like Gecko) Chrome/120.0.0.0 Safari/537.36" etag="ZTrwfGtKLqUaQCo4x44P" version="22.1.11" type="github">
  <diagram name="Page-1" id="VZDh278Wt5UdKUrzcfES">
    <mxGraphModel dx="1434" dy="786" grid="1" gridSize="10" guides="1" tooltips="1" connect="1" arrows="1" fold="1" page="1" pageScale="1" pageWidth="827" pageHeight="1169" math="0" shadow="0">
      <root>
        <mxCell id="0" />
        <mxCell id="1" parent="0" />
        <mxCell id="DQOvFMF24zLV-i_NTMZE-4" style="edgeStyle=orthogonalEdgeStyle;rounded=0;orthogonalLoop=1;jettySize=auto;html=1;entryX=0.5;entryY=0;entryDx=0;entryDy=0;" parent="1" source="DQOvFMF24zLV-i_NTMZE-1" target="DQOvFMF24zLV-i_NTMZE-3" edge="1">
          <mxGeometry relative="1" as="geometry" />
        </mxCell>
        <mxCell id="DQOvFMF24zLV-i_NTMZE-1" value="Service Entry" style="rounded=0;whiteSpace=wrap;html=1;" parent="1" vertex="1">
          <mxGeometry x="360" y="60" width="120" height="60" as="geometry" />
        </mxCell>
        <mxCell id="DQOvFMF24zLV-i_NTMZE-2" value="Switch Adapter" style="swimlane;whiteSpace=wrap;html=1;" parent="1" vertex="1">
          <mxGeometry x="242" y="200" width="356" height="500" as="geometry" />
        </mxCell>
        <mxCell id="DQOvFMF24zLV-i_NTMZE-16" style="edgeStyle=orthogonalEdgeStyle;rounded=0;orthogonalLoop=1;jettySize=auto;html=1;entryX=0.5;entryY=0;entryDx=0;entryDy=0;exitX=0.5;exitY=1;exitDx=0;exitDy=0;" parent="DQOvFMF24zLV-i_NTMZE-2" source="DQOvFMF24zLV-i_NTMZE-3" target="DQOvFMF24zLV-i_NTMZE-9" edge="1">
          <mxGeometry relative="1" as="geometry" />
        </mxCell>
        <mxCell id="DQOvFMF24zLV-i_NTMZE-3" value="change the request" style="rounded=0;whiteSpace=wrap;html=1;" parent="DQOvFMF24zLV-i_NTMZE-2" vertex="1">
          <mxGeometry x="118" y="60" width="120" height="60" as="geometry" />
        </mxCell>
        <mxCell id="DQOvFMF24zLV-i_NTMZE-13" style="edgeStyle=orthogonalEdgeStyle;rounded=0;orthogonalLoop=1;jettySize=auto;html=1;entryX=0.5;entryY=0;entryDx=0;entryDy=0;" parent="DQOvFMF24zLV-i_NTMZE-2" source="DQOvFMF24zLV-i_NTMZE-5" target="DQOvFMF24zLV-i_NTMZE-11" edge="1">
          <mxGeometry relative="1" as="geometry" />
        </mxCell>
        <mxCell id="DQOvFMF24zLV-i_NTMZE-15" value="yes" style="edgeLabel;html=1;align=center;verticalAlign=middle;resizable=0;points=[];" parent="DQOvFMF24zLV-i_NTMZE-13" vertex="1" connectable="0">
          <mxGeometry x="-0.544" relative="1" as="geometry">
            <mxPoint as="offset" />
          </mxGeometry>
        </mxCell>
        <mxCell id="DQOvFMF24zLV-i_NTMZE-5" value="Route&lt;br&gt;tag=new" style="rhombus;whiteSpace=wrap;html=1;" parent="DQOvFMF24zLV-i_NTMZE-2" vertex="1">
          <mxGeometry x="38" y="190" width="80" height="80" as="geometry" />
        </mxCell>
        <mxCell id="DQOvFMF24zLV-i_NTMZE-6" style="edgeStyle=orthogonalEdgeStyle;rounded=0;orthogonalLoop=1;jettySize=auto;html=1;entryX=0.5;entryY=0;entryDx=0;entryDy=0;" parent="DQOvFMF24zLV-i_NTMZE-2" source="DQOvFMF24zLV-i_NTMZE-3" target="DQOvFMF24zLV-i_NTMZE-5" edge="1">
          <mxGeometry relative="1" as="geometry" />
        </mxCell>
        <mxCell id="DQOvFMF24zLV-i_NTMZE-14" value="yes" style="edgeStyle=orthogonalEdgeStyle;rounded=0;orthogonalLoop=1;jettySize=auto;html=1;entryX=0.5;entryY=0;entryDx=0;entryDy=0;exitX=0.5;exitY=1;exitDx=0;exitDy=0;" parent="DQOvFMF24zLV-i_NTMZE-2" source="DQOvFMF24zLV-i_NTMZE-9" target="DQOvFMF24zLV-i_NTMZE-12" edge="1">
          <mxGeometry relative="1" as="geometry" />
        </mxCell>
        <mxCell id="DQOvFMF24zLV-i_NTMZE-9" value="Route&lt;br&gt;tag=old" style="rhombus;whiteSpace=wrap;html=1;" parent="DQOvFMF24zLV-i_NTMZE-2" vertex="1">
          <mxGeometry x="228" y="190" width="80" height="80" as="geometry" />
        </mxCell>
        <mxCell id="DQOvFMF24zLV-i_NTMZE-11" value="service new" style="rounded=0;whiteSpace=wrap;html=1;" parent="DQOvFMF24zLV-i_NTMZE-2" vertex="1">
          <mxGeometry x="8" y="390" width="120" height="60" as="geometry" />
        </mxCell>
        <mxCell id="DQOvFMF24zLV-i_NTMZE-12" value="service old" style="rounded=0;whiteSpace=wrap;html=1;" parent="DQOvFMF24zLV-i_NTMZE-2" vertex="1">
          <mxGeometry x="218" y="390" width="120" height="60" as="geometry" />
        </mxCell>
        <mxCell id="DQOvFMF24zLV-i_NTMZE-17" style="edgeStyle=orthogonalEdgeStyle;rounded=0;orthogonalLoop=1;jettySize=auto;html=1;entryX=0.5;entryY=0;entryDx=0;entryDy=0;" parent="1" source="DQOvFMF24zLV-i_NTMZE-18" edge="1">
          <mxGeometry relative="1" as="geometry">
            <mxPoint x="918" y="250" as="targetPoint" />
          </mxGeometry>
        </mxCell>
        <mxCell id="DQOvFMF24zLV-i_NTMZE-30" value="original traffic" style="edgeLabel;html=1;align=center;verticalAlign=middle;resizable=0;points=[];" parent="DQOvFMF24zLV-i_NTMZE-17" vertex="1" connectable="0">
          <mxGeometry x="-0.4591" y="1" relative="1" as="geometry">
            <mxPoint as="offset" />
          </mxGeometry>
        </mxCell>
        <mxCell id="DQOvFMF24zLV-i_NTMZE-41" value="special headers" style="edgeLabel;html=1;align=center;verticalAlign=middle;resizable=0;points=[];" parent="DQOvFMF24zLV-i_NTMZE-17" vertex="1" connectable="0">
          <mxGeometry x="-0.1886" y="3" relative="1" as="geometry">
            <mxPoint as="offset" />
          </mxGeometry>
        </mxCell>
        <mxCell id="DQOvFMF24zLV-i_NTMZE-18" value="Service Entry" style="rounded=0;whiteSpace=wrap;html=1;" parent="1" vertex="1">
          <mxGeometry x="858" y="50" width="120" height="60" as="geometry" />
        </mxCell>
        <mxCell id="DQOvFMF24zLV-i_NTMZE-19" value="Switch Adapter" style="swimlane;whiteSpace=wrap;html=1;" parent="1" vertex="1">
          <mxGeometry x="740" y="190" width="580" height="500" as="geometry" />
        </mxCell>
        <mxCell id="DQOvFMF24zLV-i_NTMZE-32" style="edgeStyle=orthogonalEdgeStyle;rounded=0;orthogonalLoop=1;jettySize=auto;html=1;entryX=0.5;entryY=0;entryDx=0;entryDy=0;" parent="DQOvFMF24zLV-i_NTMZE-19" source="DQOvFMF24zLV-i_NTMZE-27" target="DQOvFMF24zLV-i_NTMZE-31" edge="1">
          <mxGeometry relative="1" as="geometry">
            <mxPoint x="178" y="290" as="targetPoint" />
          </mxGeometry>
        </mxCell>
        <mxCell id="DQOvFMF24zLV-i_NTMZE-27" value="Route" style="rhombus;whiteSpace=wrap;html=1;" parent="DQOvFMF24zLV-i_NTMZE-19" vertex="1">
          <mxGeometry x="138" y="180" width="80" height="80" as="geometry" />
        </mxCell>
        <mxCell id="DQOvFMF24zLV-i_NTMZE-40" style="edgeStyle=orthogonalEdgeStyle;rounded=0;orthogonalLoop=1;jettySize=auto;html=1;entryX=0.5;entryY=0;entryDx=0;entryDy=0;exitX=0.5;exitY=1;exitDx=0;exitDy=0;" parent="DQOvFMF24zLV-i_NTMZE-19" source="DQOvFMF24zLV-i_NTMZE-31" target="DQOvFMF24zLV-i_NTMZE-36" edge="1">
          <mxGeometry relative="1" as="geometry">
            <Array as="points">
              <mxPoint x="178" y="380" />
              <mxPoint x="70" y="380" />
              <mxPoint x="70" y="40" />
              <mxPoint x="178" y="40" />
            </Array>
          </mxGeometry>
        </mxCell>
        <mxCell id="DQOvFMF24zLV-i_NTMZE-42" value="tag=a/ tag =b&lt;br&gt;remove special headers" style="edgeLabel;html=1;align=center;verticalAlign=middle;resizable=0;points=[];" parent="DQOvFMF24zLV-i_NTMZE-40" vertex="1" connectable="0">
          <mxGeometry x="-0.1107" y="-1" relative="1" as="geometry">
            <mxPoint as="offset" />
          </mxGeometry>
        </mxCell>
        <mxCell id="DQOvFMF24zLV-i_NTMZE-31" value="filter" style="shape=process;whiteSpace=wrap;html=1;backgroundOutline=1;" parent="DQOvFMF24zLV-i_NTMZE-19" vertex="1">
          <mxGeometry x="118" y="300" width="120" height="60" as="geometry" />
        </mxCell>
        <mxCell id="DQOvFMF24zLV-i_NTMZE-34" value="Route&lt;br&gt;tag=old" style="rhombus;whiteSpace=wrap;html=1;" parent="DQOvFMF24zLV-i_NTMZE-19" vertex="1">
          <mxGeometry x="250" y="180" width="80" height="80" as="geometry" />
        </mxCell>
        <mxCell id="DQOvFMF24zLV-i_NTMZE-35" value="Route&lt;br&gt;tag=new" style="rhombus;whiteSpace=wrap;html=1;" parent="DQOvFMF24zLV-i_NTMZE-19" vertex="1">
          <mxGeometry x="390" y="180" width="80" height="80" as="geometry" />
        </mxCell>
        <mxCell id="DQOvFMF24zLV-i_NTMZE-37" style="edgeStyle=orthogonalEdgeStyle;rounded=0;orthogonalLoop=1;jettySize=auto;html=1;entryX=0.5;entryY=0;entryDx=0;entryDy=0;" parent="DQOvFMF24zLV-i_NTMZE-19" source="DQOvFMF24zLV-i_NTMZE-36" target="DQOvFMF24zLV-i_NTMZE-27" edge="1">
          <mxGeometry relative="1" as="geometry" />
        </mxCell>
        <mxCell id="DQOvFMF24zLV-i_NTMZE-39" style="edgeStyle=orthogonalEdgeStyle;rounded=0;orthogonalLoop=1;jettySize=auto;html=1;entryX=0.5;entryY=0;entryDx=0;entryDy=0;exitX=0.5;exitY=1;exitDx=0;exitDy=0;" parent="DQOvFMF24zLV-i_NTMZE-19" source="DQOvFMF24zLV-i_NTMZE-36" target="DQOvFMF24zLV-i_NTMZE-35" edge="1">
          <mxGeometry relative="1" as="geometry" />
        </mxCell>
        <mxCell id="DQOvFMF24zLV-i_NTMZE-36" value="" style="ellipse;whiteSpace=wrap;html=1;aspect=fixed;" parent="DQOvFMF24zLV-i_NTMZE-19" vertex="1">
          <mxGeometry x="158" y="60" width="40" height="40" as="geometry" />
        </mxCell>
        <mxCell id="DQOvFMF24zLV-i_NTMZE-38" style="edgeStyle=orthogonalEdgeStyle;rounded=0;orthogonalLoop=1;jettySize=auto;html=1;entryX=0.513;entryY=-0.075;entryDx=0;entryDy=0;entryPerimeter=0;exitX=0.5;exitY=1;exitDx=0;exitDy=0;" parent="DQOvFMF24zLV-i_NTMZE-19" source="DQOvFMF24zLV-i_NTMZE-36" target="DQOvFMF24zLV-i_NTMZE-34" edge="1">
          <mxGeometry relative="1" as="geometry" />
        </mxCell>
      </root>
    </mxGraphModel>
  </diagram>
</mxfile>
